<svg fill="#ffffff" height="100px" width="120px" version="1.1" id="Capa_1" xmlns="http://www.w3.org/2000/svg" xmlns:xlink="http://www.w3.org/1999/xlink" viewBox="0 0 1140 814" xml:space="preserve">
    <g id="SVGRepo_bgCarrier" stroke-width="0"></g>
    <g id="SVGRepo_tracerCarrier" stroke-linecap="round" stroke-linejoin="round"></g>
    <g id="SVGRepo_iconCarrier">
        <g transform="translate(0,814) scale(0.1,-0.1)" fill="#ffffff" stroke="none">
            <path d="M3490 7684 c-19 -2 -91 -9 -160 -14 -226 -19 -546 -60 -1145 -145 -1034 -147 -1460 -195 -1739 -195 l-88 0 6 -27 c4 -16 22 -59 41 -98 157 -323 621 -409 1420 -264 224 41 414 84 965 219 591 145 755 181 936 205 120 16 304 20 304 6 0 -9 -247 -84 -535 -161 -189 -51 -893 -226 -1765 -439 -711 -173 -795 -196 -798 -213 -6 -32 41 -129 88 -181 205 -224 652 -169 1508 184 79 33 297 127 485 210 438 194 591 257 755 313 166 57 368 97 337 67 -21 -20 -413 -216 -622 -310 -122 -55 -445 -195 -717 -311 -273 -115 -609 -260 -748 -321 -139 -61 -268 -118 -285 -125 -18 -8 -33 -19 -33 -26 0 -21 84 -121 135 -159 182 -137 419 -128 750 30 225 108 390 215 840 550 333 247 479 347 585 401 75 38 158 66 167 57 6 -7 -221 -200 -416 -356 -214 -171 -445 -343 -871 -651 -201 -144 -374 -271 -385 -281 -19 -18 -19 -19 29 -64 27 -24 74 -57 105 -72 49 -25 67 -28 151 -28 83 0 105 4 172 32 221 88 435 282 861 778 198 230 361 399 420 433 20 12 37 19 37 16 0 -24 -218 -310 -445 -585 -404 -486 -674 -842 -662 -873 3 -7 35 -21 71 -31 156 -42 305 13 460 169 157 157 280 349 488 761 135 268 213 411 229 421 5 3 31 -13 57 -36 90 -80 225 -139 353 -154 111 -14 253 26 339 94 39 31 100 114 100 136 0 8 -21 15 -57 19 -85 9 -217 51 -308 98 -96 50 -219 166 -256 242 -22 47 -24 61 -24 220 0 161 -1 173 -25 219 -64 125 -226 203 -490 236 -76 9 -532 12 -620 4z"/>
            <path d="M7275 7679 c-204 -28 -339 -81 -422 -165 -74 -77 -84 -115 -81 -305 l3 -154 -33 -61 c-44 -81 -129 -163 -227 -219 -88 -50 -238 -100 -327 -110 -37 -4 -58 -11 -58 -19 0 -22 61 -105 100 -136 186 -147 486 -120 696 63 24 21 48 36 53 33 16 -10 95 -153 201 -366 189 -379 323 -600 454 -753 177 -206 357 -282 536 -228 l72 22 -18 27 c-93 146 -307 425 -544 712 -322 389 -559 695 -560 722 0 15 72 -36 139 -98 38 -36 125 -129 193 -207 515 -592 641 -719 853 -851 221 -140 405 -140 560 -2 50 44 50 44 30 64 -11 10 -159 120 -330 242 -446 322 -713 521 -930 695 -214 172 -418 345 -413 350 9 10 97 -19 166 -54 109 -55 255 -155 587 -402 449 -334 614 -442 840 -550 394 -188 671 -164 849 72 l48 63 -54 24 c-220 98 -661 288 -1018 440 -677 287 -931 402 -1208 549 -161 85 -164 96 -19 69 172 -33 359 -104 978 -376 737 -324 1029 -432 1344 -495 317 -64 523 -32 644 100 48 54 95 150 89 183 -3 18 -107 45 -1163 302 -1291 315 -1944 488 -1929 511 8 14 172 10 299 -6 178 -24 382 -68 840 -182 734 -182 941 -228 1250 -273 484 -71 844 -40 1042 89 109 71 203 195 229 304 l6 27 -88 0 c-270 0 -727 51 -1634 181 -1042 149 -1238 170 -1655 174 -176 2 -351 -1 -390 -6z"/>
            <path d="M5587 7610 c-133 -34 -261 -153 -307 -284 -42 -124 -35 -230 25 -353 39 -80 115 -157 190 -193 l45 -22 0 -161 c0 -89 7 -486 15 -882 8 -396 15 -752 15 -791 l0 -71 128 -40 127 -40 7 286 c11 500 28 1421 28 1563 l0 136 48 23 c26 13 73 49 105 80 222 221 156 588 -130 721 -57 27 -79 32 -162 34 -53 2 -113 -1 -134 -6z"/>
            <path d="M4774 6286 c-166 -38 -347 -181 -469 -371 -101 -157 -142 -300 -132 -460 8 -116 27 -188 81 -300 163 -339 520 -591 1084 -764 73 -22 248 -72 390 -111 489 -135 602 -182 602 -250 0 -70 -135 -154 -377 -237 -62 -21 -113 -40 -113 -43 0 -4 17 -12 38 -19 102 -37 278 -109 371 -152 l104 -49 76 42 c104 59 228 182 269 268 163 343 -56 567 -788 804 -447 145 -605 204 -787 293 -240 116 -408 254 -474 388 -29 58 -35 83 -38 152 -3 93 16 167 52 200 49 45 64 48 239 45 269 -5 468 27 524 83 75 75 -27 221 -268 382 -149 99 -258 127 -384 99z m373 -188 c31 -29 30 -71 -3 -97 -15 -12 -35 -21 -45 -21 -54 0 -81 93 -37 124 31 22 58 20 85 -6z"/>
            <path d="M6450 6286 c-98 -21 -250 -114 -376 -230 -120 -109 -155 -196 -100 -251 56 -56 254 -88 523 -83 178 3 203 -2 245 -49 46 -50 62 -192 34 -288 -59 -194 -340 -405 -763 -571 l-121 -48 231 -82 c128 -45 262 -93 298 -107 l66 -25 93 49 c312 165 556 439 625 704 39 147 28 321 -29 461 -101 248 -343 475 -553 519 -38 7 -127 12 -198 11 -72 -1 -151 -5 -177 -10z m153 -226 c18 -14 32 -40 37 -67 8 -41 7 -47 -17 -66 -27 -21 -49 -20 -83 4 -22 16 -32 34 -37 66 -7 43 3 65 34 78 29 11 47 9 66 -15z"/>
            <path d="M4824 5366 c-6 -17 -41 -113 -79 -215 -75 -203 -98 -301 -106 -451 -15 -278 92 -478 363 -691 131 -104 332 -218 502 -282 167 -62 450 -117 636 -120 206 -3 264 8 275 53 17 68 3 141 -38 185 -67 72 -127 80 -558 80 -464 0 -630 31 -854 156 -282 154 -442 387 -442 648 0 66 11 154 25 201 49 163 119 207 203 128 37 -34 45 -37 96 -33 32 3 61 12 67 20 6 8 49 121 95 252 46 131 88 248 93 261 8 20 7 33 -5 52 -27 43 -112 67 -170 44 -51 -20 -98 -69 -116 -118z"/>
            <path d="M6375 5383 c-9 -3 -40 -11 -70 -17 -30 -6 -114 -37 -187 -68 -271 -111 -451 -191 -596 -270 -263 -140 -459 -277 -635 -448 -287 -275 -460 -547 -460 -728 0 -101 19 -141 88 -185 58 -36 149 -25 197 22 19 19 37 38 40 42 3 5 30 53 60 108 107 197 319 433 589 644 174 140 567 382 722 426 57 16 158 -3 257 -48 166 -79 287 -197 425 -405 96 -144 112 -174 137 -248 14 -39 28 -74 33 -77 5 -3 25 9 44 27 60 56 57 142 -9 290 -98 224 -268 475 -434 640 -225 224 -488 304 -745 222z"/>
        </g>
    </g>
</svg>
